<svg width="2094" height="502" viewBox="0 0 2094 502" fill="none" xmlns="http://www.w3.org/2000/svg">
<path d="M0 50C0 22.3857 22.3858 0 50 0H914V502H50C22.3858 502 0 479.614 0 452V50Z" fill="#FFDD2D"/>
<path d="M123.616 287.96L125.584 229.904H103.608C101.859 229.904 100.984 229.248 100.984 227.936C100.984 224 102.843 219.517 106.56 214.488C110.277 209.24 114.323 206.616 118.696 206.616H125.584C125.147 189.56 124.709 177.315 124.272 169.88C123.397 156.541 121.211 146.264 117.712 139.048L116.072 135.768C115.197 134.675 114.76 133.363 114.76 131.832C114.76 130.301 115.963 128.989 118.368 127.896C120.773 126.803 124.272 125.491 128.864 123.96C133.675 122.429 143.733 120.461 159.04 118.056C174.347 115.432 190.965 114.12 208.896 114.12C227.045 114.12 236.885 115.432 238.416 118.056C240.165 120.68 241.04 124.835 241.04 130.52C241.04 135.987 240.275 138.72 238.744 138.72C238.525 138.72 237.76 138.611 236.448 138.392C232.949 137.517 227.592 137.08 220.376 137.08C213.16 137.08 205.397 137.736 197.088 139.048C188.779 140.36 182.437 141.672 178.064 142.984L171.832 145.28C170.083 145.717 168.771 147.248 167.896 149.872C166.147 162.773 165.272 181.688 165.272 206.616H218.408C220.376 206.616 221.36 207.272 221.36 208.584C221.36 212.52 219.611 217.112 216.112 222.36C212.613 227.608 208.677 230.232 204.304 230.232L165.272 229.904L167.568 328.304C167.568 333.115 166.803 336.613 165.272 338.8C161.117 344.267 154.011 348.312 143.952 350.936C134.112 353.779 125.912 355.2 119.352 355.2C117.603 355.2 116.728 354.107 116.728 351.92C116.728 350.827 116.837 349.952 117.056 349.296C119.68 345.579 121.867 325.133 123.616 287.96ZM359.522 201.04C355.586 224.656 353.618 254.723 353.618 291.24C353.618 318.136 354.712 335.848 356.898 344.376L358.21 348.64C358.21 351.483 355.805 352.904 350.994 352.904C334.157 352.904 324.536 348.203 322.13 338.8C321.912 337.707 321.365 337.16 320.49 337.16C319.834 337.16 319.178 337.597 318.522 338.472C311.744 347.437 301.248 351.92 287.034 351.92C279.162 351.92 270.962 349.952 262.434 346.016C257.186 343.611 252.922 339.456 249.642 333.552C246.362 327.429 244.722 319.995 244.722 311.248L249.642 239.416C249.642 224.328 248.112 213.613 245.05 207.272C243.957 204.867 243.41 203.336 243.41 202.68C243.41 201.368 243.957 200.493 245.05 200.056C248.549 198.963 253.032 198.416 258.498 198.416C279.709 198.416 290.314 207.163 290.314 224.656C290.314 230.123 288.018 242.587 283.426 262.048C279.053 281.509 276.866 295.395 276.866 303.704C276.866 311.795 278.616 318.027 282.114 322.4C285.832 326.773 290.861 328.96 297.202 328.96C303.762 328.96 308.901 326.664 312.618 322.072C316.336 317.48 318.522 312.888 319.178 308.296L320.162 301.408C321.037 293.755 321.474 280.307 321.474 261.064C321.474 241.821 320.818 229.685 319.506 224.656C318.413 219.408 317.866 216.128 317.866 214.816C317.866 209.349 322.24 205.085 330.986 202.024C339.733 198.744 347.605 197.104 354.602 197.104C357.882 197.104 359.522 198.416 359.522 201.04ZM475.091 302.064C475.091 311.467 473.232 319.667 469.515 326.664C466.016 333.661 461.971 338.8 457.379 342.08C452.787 345.36 447.32 347.984 440.979 349.952C432.67 352.576 425.126 353.888 418.347 353.888C404.134 353.888 392.326 351.155 382.923 345.688C373.52 340.003 368.819 331.037 368.819 318.792C368.819 311.576 370.787 305.672 374.723 301.08C380.846 294.301 388.171 290.912 396.699 290.912C399.323 290.912 400.635 292.115 400.635 294.52C400.635 294.739 400.088 296.488 398.995 299.768C398.12 302.829 397.683 306.765 397.683 311.576C397.683 316.387 399.542 320.651 403.259 324.368C407.195 328.085 411.896 329.944 417.363 329.944C422.83 329.944 427.203 329.069 430.483 327.32C433.763 325.352 436.059 322.947 437.371 320.104C439.339 316.168 440.323 312.451 440.323 308.952C440.323 302.611 437.152 297.144 430.811 292.552C424.47 287.96 417.472 284.352 409.819 281.728C402.166 279.104 395.168 274.731 388.827 268.608C382.486 262.485 379.315 254.832 379.315 245.648C379.315 229.904 384.235 218.096 394.075 210.224C404.134 202.352 417.691 198.416 434.747 198.416C442.182 198.416 449.944 199.509 458.035 201.696C466.344 203.664 470.499 207.163 470.499 212.192C470.499 217.003 469.624 221.485 467.875 225.64C466.344 229.795 464.376 231.872 461.971 231.872C460.659 231.872 459.784 231.435 459.347 230.56C458.91 229.467 458.144 228.264 457.051 226.952C455.958 225.64 453.334 224 449.179 222.032C445.024 219.845 441.416 218.752 438.355 218.752C435.512 218.752 433.544 218.861 432.451 219.08C431.576 219.08 429.936 219.408 427.531 220.064C425.126 220.501 422.939 221.267 420.971 222.36C415.942 225.203 413.427 229.357 413.427 234.824C413.427 238.323 414.192 240.947 415.723 242.696C417.254 244.227 418.456 245.429 419.331 246.304C420.206 247.179 421.736 248.272 423.923 249.584C426.11 250.677 427.64 251.443 428.515 251.88C429.39 252.317 431.358 253.301 434.419 254.832C437.48 256.144 439.448 257.019 440.323 257.456C463.502 268.389 475.091 283.259 475.091 302.064ZM521.913 171.52L514.041 171.192C508.137 171.192 504.31 172.613 502.561 175.456C502.124 176.112 501.577 176.44 500.921 176.44C498.078 176.44 496.657 171.629 496.657 162.008C496.657 152.168 498.078 145.936 500.921 143.312C503.982 140.688 509.121 139.376 516.337 139.376C523.772 139.376 528.801 140.688 531.425 143.312C534.049 145.717 535.361 149.872 535.361 155.776C535.361 161.68 534.377 165.835 532.409 168.24C530.441 170.427 526.942 171.52 521.913 171.52ZM495.673 337.16L499.281 260.736C499.281 242.587 497.204 230.232 493.049 223.672C491.737 221.485 490.206 219.845 488.457 218.752C487.145 218.315 486.489 217.44 486.489 216.128C486.489 212.192 492.065 208.365 503.217 204.648C514.369 200.931 522.46 199.072 527.489 199.072C532.737 199.072 535.47 200.384 535.689 203.008C535.689 207.381 535.033 219.845 533.721 240.4C532.628 260.736 532.081 282.165 532.081 304.688C532.081 327.211 533.393 341.205 536.017 346.672C536.673 347.765 537.001 348.859 537.001 349.952C537.001 352.795 532.846 354.216 524.537 354.216C516.228 354.216 507.7 352.029 498.953 347.656C496.766 346.563 495.673 343.064 495.673 337.16ZM588.179 223.344C582.494 223.563 578.339 223.781 575.715 224C573.31 224 572.107 223.344 572.107 222.032C572.107 220.72 572.763 219.408 574.075 218.096C588.07 205.195 611.686 198.744 644.923 198.744C656.294 198.744 665.259 199.728 671.819 201.696L675.099 202.68C677.723 203.773 679.035 204.976 679.035 206.288C679.035 207.381 678.27 208.256 676.739 208.912C670.835 210.661 665.15 213.504 659.683 217.44C654.217 221.157 651.483 223.781 651.483 225.312L653.451 227.608C660.449 231.544 665.806 237.776 669.523 246.304C673.459 254.832 675.646 262.376 676.083 268.936L676.739 279.104C676.739 300.752 670.726 318.573 658.699 332.568C646.673 346.563 630.273 353.56 609.499 353.56C599.003 353.56 589.929 351.701 582.275 347.984C574.622 344.267 568.937 340.112 565.219 335.52C561.721 330.709 558.878 325.352 556.691 319.448C554.067 311.357 552.755 303.048 552.755 294.52C552.755 285.773 554.177 277.027 557.019 268.28C560.081 259.533 563.47 253.083 567.187 248.928C571.123 244.773 575.497 241.384 580.307 238.76C586.43 235.48 591.35 233.84 595.067 233.84C598.785 233.84 600.643 234.605 600.643 236.136L598.675 239.416C593.865 245.101 590.366 252.536 588.179 261.72C586.211 270.904 585.227 279.104 585.227 286.32C585.227 293.317 586.102 300.315 587.851 307.312C589.601 314.309 591.569 319.557 593.755 323.056C595.942 326.336 598.457 328.851 601.299 330.6C605.454 333.224 609.827 334.536 614.419 334.536C619.011 334.536 623.494 332.787 627.867 329.288C632.241 325.571 635.411 320.76 637.379 314.856C641.315 303.923 643.283 292.661 643.283 281.072C643.283 262.704 638.582 248.491 629.179 238.432C619.995 228.373 606.329 223.344 588.179 223.344ZM692.809 349.296C696.745 325.68 698.713 297.363 698.713 264.344C698.713 231.325 697.729 209.896 695.761 200.056C695.761 197.213 699.041 195.792 705.601 195.792C715.659 195.792 722.329 199.619 725.609 207.272C725.827 207.928 726.374 208.256 727.249 208.256C728.123 208.256 728.779 208.037 729.217 207.6C735.995 200.603 746.491 197.104 760.705 197.104C774.918 197.104 786.179 200.712 794.489 207.928C802.798 215.144 806.953 225.64 806.953 239.416C806.953 247.725 806.187 259.533 804.657 274.84C803.345 290.147 802.689 301.517 802.689 308.952C802.689 326.664 805.641 339.456 811.545 347.328C812.419 348.421 812.857 349.515 812.857 350.608C812.857 353.451 809.795 354.872 803.673 354.872C776.558 354.872 763.001 342.845 763.001 318.792C763.001 309.608 765.078 296.816 769.233 280.416C773.387 264.016 775.465 251.552 775.465 243.024C775.465 225.531 768.249 216.784 753.817 216.784C746.819 216.784 741.462 218.861 737.745 223.016C734.246 227.171 732.278 231.981 731.841 237.448C731.403 242.696 731.185 252.755 731.185 267.624C731.185 290.365 731.95 310.155 733.481 326.992L734.137 334.208C734.137 340.331 730.091 345.032 722.001 348.312C714.129 351.811 707.241 353.56 701.337 353.56C695.651 353.56 692.809 352.139 692.809 349.296Z" fill="black"/>
<path d="M912 0H2044C2071.61 0 2094 22.3858 2094 50V452C2094 479.614 2071.61 502 2044 502H912V0Z" fill="#488B73"/>
<path d="M1029.71 219.408L1028.07 157.416C1028.07 147.576 1026.98 139.813 1024.79 134.128C1022.61 128.443 1021.51 125.381 1021.51 124.944C1021.51 120.133 1028.84 116.416 1043.49 113.792C1058.36 111.168 1069.62 109.856 1077.27 109.856C1085.14 109.856 1089.41 111.715 1090.06 115.432C1103.84 176.877 1115.43 219.517 1124.83 243.352C1125.93 245.976 1127.02 247.288 1128.11 247.288C1129.42 247.288 1130.52 246.304 1131.39 244.336C1146.04 203.008 1158.94 162.117 1170.1 121.664C1170.97 119.04 1173.16 117.072 1176.66 115.76C1180.15 114.229 1186.17 112.808 1194.7 111.496C1203.44 110.184 1212.08 109.528 1220.61 109.528C1229.14 109.528 1233.4 111.277 1233.4 114.776C1233.4 114.995 1233.07 116.744 1232.42 120.024C1231.76 123.085 1231.1 126.912 1230.45 131.504C1229.79 136.096 1229.03 141.672 1228.15 148.232C1226.18 163.32 1224.87 180.704 1224.22 200.384C1223.78 219.845 1223.56 239.416 1223.56 259.096L1224.22 293.536C1224.22 309.28 1225.2 320.541 1227.17 327.32C1229.35 333.88 1230.45 337.707 1230.45 338.8C1230.45 339.675 1229.68 340.768 1228.15 342.08C1221.37 347.547 1211.1 350.28 1197.32 350.28C1188.57 350.28 1183.65 347.328 1182.56 341.424C1181.9 338.363 1181.58 333.552 1181.58 326.992C1181.58 320.213 1182.23 299.659 1183.54 265.328C1184.86 230.997 1185.51 206.069 1185.51 190.544C1185.51 174.8 1184.64 166.928 1182.89 166.928C1182.67 166.928 1182.56 167.037 1182.56 167.256C1182.56 167.256 1182.23 167.365 1181.58 167.584C1180.92 167.803 1179.17 171.192 1176.33 177.752C1173.7 184.312 1168.35 200.493 1160.26 226.296C1152.17 252.099 1144.84 276.261 1138.28 298.784C1131.72 321.088 1128.11 333.115 1127.46 334.864C1125.05 340.768 1120.46 343.72 1113.68 343.72C1110.4 343.72 1107.78 342.517 1105.81 340.112C1098.81 307.749 1086.35 261.501 1068.42 201.368L1059.23 171.52C1058.79 170.427 1058.36 169.88 1057.92 169.88C1056.83 169.88 1056.06 170.645 1055.62 172.176C1054.75 186.389 1054.31 214.379 1054.31 256.144C1054.31 297.691 1055.84 323.931 1058.9 334.864C1059.12 335.301 1059.23 335.957 1059.23 336.832C1059.23 341.424 1055.62 344.813 1048.41 347C1041.19 348.968 1034.63 349.952 1028.73 349.952C1023.04 349.952 1020.2 348.64 1020.2 346.016C1020.2 345.797 1020.75 344.048 1021.84 340.768C1025.12 329.616 1027.2 313.435 1028.07 292.224C1029.17 271.013 1029.71 246.741 1029.71 219.408ZM1359.45 248.6L1358.8 290.584C1358.8 319.667 1361.97 337.16 1368.31 343.064C1369.19 343.939 1369.62 344.923 1369.62 346.016C1369.62 349.296 1362.52 350.936 1348.3 350.936C1334.31 350.936 1326.87 346.781 1326 338.472C1325.78 336.504 1325.67 332.459 1325.67 326.336L1326.98 273.856C1326.98 272.325 1326.11 271.56 1324.36 271.56C1313.86 271.56 1304.02 274.512 1294.84 280.416C1285.65 286.32 1281.06 293.864 1281.06 303.048C1281.06 307.859 1282.37 311.904 1285 315.184C1287.62 318.464 1290.79 320.104 1294.51 320.104C1298.45 320.104 1301.62 319.339 1304.02 317.808C1306.65 316.277 1308.18 315.403 1308.61 315.184C1312.33 315.621 1314.19 319.557 1314.19 326.992C1314.19 334.208 1310.8 340.112 1304.02 344.704C1297.24 349.077 1290.14 351.264 1282.7 351.264C1275.27 351.264 1268.82 349.952 1263.35 347.328C1258.1 344.704 1254.28 341.752 1251.87 338.472C1249.47 335.192 1247.5 331.475 1245.97 327.32C1244.44 322.291 1243.67 317.917 1243.67 314.2C1243.67 298.893 1248.48 286.648 1258.1 277.464C1267.72 268.28 1280.08 261.72 1295.17 257.784C1315.07 253.848 1325.45 250.24 1326.33 246.96C1326.98 244.555 1327.31 240.509 1327.31 234.824C1327.31 223.235 1321.41 217.44 1309.6 217.44C1304.57 217.44 1300.09 219.08 1296.15 222.36C1292.21 225.421 1290.25 229.357 1290.25 234.168L1292.21 242.04C1291.78 245.757 1287.84 247.944 1280.41 248.6L1276.8 248.928C1270.24 248.928 1264.99 247.288 1261.05 244.008C1257.34 240.728 1255.48 236.355 1255.48 230.888C1255.48 227.389 1256.57 223.563 1258.76 219.408C1261.16 215.035 1264.12 211.536 1267.61 208.912C1271.11 206.288 1276.47 203.992 1283.69 202.024C1291.12 199.837 1298.23 198.744 1305.01 198.744C1311.79 198.744 1317.03 198.963 1320.75 199.4C1324.47 199.837 1329.5 200.931 1335.84 202.68C1342.4 204.211 1347.76 207.272 1351.91 211.864C1356.28 216.456 1358.58 221.376 1358.8 226.624C1359.24 231.653 1359.45 238.979 1359.45 248.6ZM1479.35 259.096L1480.66 270.576C1480.66 274.731 1476.72 276.808 1468.85 276.808C1452.89 276.808 1444.91 270.795 1444.91 258.768C1444.91 255.925 1445.67 251.989 1447.2 246.96C1448.74 241.931 1449.5 237.557 1449.5 233.84C1449.5 230.123 1448.41 226.952 1446.22 224.328C1444.03 221.485 1440.86 220.064 1436.71 220.064C1432.55 220.064 1428.95 221.595 1425.88 224.656C1423.04 227.499 1421.29 230.451 1420.64 233.512L1419.32 238.104C1418.01 244.883 1417.36 256.253 1417.36 272.216C1417.36 287.96 1417.58 300.424 1418.01 309.608C1418.45 318.573 1418.89 324.805 1419.32 328.304C1419.76 331.584 1419.98 333.552 1419.98 334.208C1419.98 339.675 1416.59 344.048 1409.81 347.328C1403.03 350.827 1396.26 352.576 1389.48 352.576C1382.7 352.576 1379.31 351.155 1379.31 348.312L1380.95 338.144C1384.01 319.12 1385.54 294.301 1385.54 263.688C1385.54 233.075 1384.45 212.301 1382.26 201.368C1382.26 198.744 1384.56 197.432 1389.15 197.432C1400.96 197.432 1408.83 201.477 1412.76 209.568C1412.98 210.443 1413.31 210.88 1413.75 210.88C1414.4 210.88 1415.94 209.896 1418.34 207.928C1425.56 202.024 1434.08 199.072 1443.92 199.072C1450.05 199.072 1456.17 200.275 1462.29 202.68C1474.76 207.709 1480.99 218.205 1480.99 234.168L1479.35 259.096ZM1490.98 219.08L1491.97 205.96C1492.19 203.992 1493.72 203.008 1496.56 203.008H1508.04L1506.73 176.768V175.456C1506.73 170.427 1510.55 165.616 1518.21 161.024C1525.86 156.432 1532.86 154.136 1539.2 154.136C1541.17 154.136 1542.15 155.011 1542.15 156.76V157.088C1541.28 162.992 1540.4 178.189 1539.53 202.68C1549.15 202.68 1555.27 202.461 1557.89 202.024C1560.52 201.587 1561.94 201.368 1562.16 201.368C1563.69 201.368 1564.45 202.68 1564.45 205.304C1564.45 207.928 1563.25 211.317 1560.85 215.472C1558.44 219.408 1555.82 221.485 1552.97 221.704H1539.2C1538.98 229.139 1538.87 241.712 1538.87 259.424C1538.87 276.917 1538.98 291.349 1539.2 302.72C1539.64 314.091 1540.07 322.728 1540.51 328.632C1540.95 334.317 1541.39 338.909 1541.82 342.408C1542.48 345.907 1542.92 348.421 1543.13 349.952C1543.57 351.483 1543.79 352.467 1543.79 352.904C1543.79 355.091 1542.37 356.293 1539.53 356.512C1531 356.512 1522.47 355.309 1513.94 352.904C1505.63 350.499 1501.48 346.344 1501.48 340.44C1506.07 303.704 1508.37 264.235 1508.37 222.032C1502.46 222.032 1497.98 222.251 1494.92 222.688H1494.59C1492.62 222.688 1491.42 221.485 1490.98 219.08Z" fill="white"/>
<path d="M1715.91 370.641C1710.38 370.641 1705.71 368.743 1701.92 364.948C1698.12 361.153 1696.23 356.488 1696.23 350.953C1696.23 345.417 1698.12 340.751 1701.92 336.956C1705.71 333.163 1710.38 331.266 1715.91 331.266C1721.45 331.266 1726.12 333.163 1729.91 336.956C1733.7 340.751 1735.6 345.417 1735.6 350.953C1735.6 356.488 1733.7 361.153 1729.91 364.948C1726.12 368.743 1721.45 370.641 1715.91 370.641ZM1839.09 370.641C1833.55 370.641 1828.88 368.743 1825.09 364.948C1821.3 361.153 1819.4 356.488 1819.4 350.953C1819.4 345.417 1821.3 340.751 1825.09 336.956C1828.88 333.163 1833.55 331.266 1839.09 331.266C1844.62 331.266 1849.29 333.163 1853.08 336.956C1856.88 340.751 1858.77 345.417 1858.77 350.953C1858.77 356.488 1856.88 361.153 1853.08 364.948C1849.29 368.743 1844.62 370.641 1839.09 370.641ZM1690.77 152.562H1861.65C1867.36 152.562 1871.65 154.889 1874.52 159.542C1877.4 164.195 1877.55 168.986 1874.98 173.917L1837.47 242.265C1835.57 245.463 1833.1 247.971 1830.06 249.789C1827.03 251.607 1823.69 252.516 1820.05 252.516H1726.31L1710.36 281.795C1709.01 283.814 1708.97 286.001 1710.23 288.357C1711.5 290.713 1713.39 291.891 1715.91 291.891H1858.77V305.016H1715.91C1708.26 305.016 1702.55 301.789 1698.78 295.336C1695.01 288.883 1694.91 282.4 1698.5 275.888L1718.23 240.703L1669.98 139.438H1646.25V126.312H1678.3L1690.77 152.562Z" fill="#FFDD2D"/>
</svg>
